# xmcd
#
# Track frame offsets: 
#        150
#        16667
#        33474
#        49250
#        66874
#        81479
#        103213
#        116853
#        136535
#        154035
#        184858
#        203648
#
# Disc length: 3062 seconds
#
# Revision: 2
# Processed by: cddbd v1.5.2PL0 Copyright (c) Steve Scherf et al.
# Submitted via: ExactAudioCopy v1.1
#
DISCID=a00bf40c
DTITLE=Steve Schuffert Band - Love, Sex and Freedom
DYEAR=2004
DGENRE=Bluesrock
TTITLE0=You're not worth it
TTITLE1=Love on the outer Edge
TTITLE2=When the Master becomes the Slave
TTITLE3=All I need tonight
TTITLE4=Free
TTITLE5=Back on the Ground
TTITLE6=Love me too
TTITLE7=A million miles away
TTITLE8=Nothing wrong with you
TTITLE9=Here to love you
TTITLE10=Johnny's going to Jail
TTITLE11=Love, Sex and Freedom
EXTD=www.fortunerecords.de
EXTT0=
EXTT1=
EXTT2=
EXTT3=
EXTT4=
EXTT5=
EXTT6=
EXTT7=
EXTT8=
EXTT9=
EXTT10=
EXTT11=
PLAYORDER=
